<svg width="24" height="25" viewBox="0 0 24 25" fill="none" xmlns="http://www.w3.org/2000/svg">
<g id="album-fill">
<path id="Vector" d="M12 2.94531C17.52 2.94531 22 7.42531 22 12.9453C22 18.4653 17.52 22.9453 12 22.9453C6.48 22.9453 2 18.4653 2 12.9453C2 7.42531 6.48 2.94531 12 2.94531ZM12 16.9453C14.213 16.9453 16 15.1583 16 12.9453C16 10.7323 14.213 8.94531 12 8.94531C9.787 8.94531 8 10.7323 8 12.9453C8 15.1583 9.787 16.9453 12 16.9453ZM12 11.9453C12.55 11.9453 13 12.3953 13 12.9453C13 13.4953 12.55 13.9453 12 13.9453C11.45 13.9453 11 13.4953 11 12.9453C11 12.3953 11.45 11.9453 12 11.9453Z" fill="black"/>
</g>
</svg>
