<svg width="32" height="33" viewBox="0 0 32 33" fill="none" xmlns="http://www.w3.org/2000/svg">
<g id="ghost-smile-fill">
<path id="Vector" d="M16 3.60938C19.1826 3.60938 22.2348 4.87366 24.4853 7.12409C26.7357 9.37453 28 12.4268 28 15.6094V25.6094C28.0005 26.6066 27.6815 27.5778 27.0898 28.3806C26.4981 29.1833 25.6648 29.7754 24.712 30.07C23.7593 30.3646 22.7372 30.3463 21.7956 30.0177C20.8541 29.6891 20.0425 29.0675 19.48 28.244C19.1317 28.8609 18.6258 29.3742 18.0139 29.7314C17.4021 30.0885 16.7064 30.2767 15.998 30.2767C15.2896 30.2767 14.5939 30.0885 13.9821 29.7314C13.3702 29.3742 12.8643 28.8609 12.516 28.244C11.9654 29.0478 11.1769 29.6591 10.2613 29.9922C9.34569 30.3252 8.34878 30.3634 7.41039 30.1012C6.47201 29.839 5.63921 29.2897 5.0288 28.5303C4.41838 27.7709 4.06097 26.8395 4.00667 25.8667L4 25.608V15.6094C4 12.4268 5.26428 9.37453 7.51472 7.12409C9.76515 4.87366 12.8174 3.60938 16 3.60938ZM21.3333 18.276H18.6667C18.6698 18.968 18.4038 19.6341 17.9248 20.1336C17.4459 20.6331 16.7916 20.9268 16.1001 20.9528C15.4086 20.9787 14.7341 20.7349 14.219 20.2727C13.704 19.8106 13.3888 19.1663 13.34 18.476L13.3333 18.276H10.6667L10.6733 18.5427C10.7417 19.9093 11.3328 21.1974 12.3242 22.1405C13.3157 23.0835 14.6317 23.6095 16 23.6095C17.3683 23.6095 18.6843 23.0835 19.6758 22.1405C20.6672 21.1974 21.2583 19.9093 21.3267 18.5427L21.3333 18.276ZM16 10.276C15.2928 10.276 14.6145 10.557 14.1144 11.0571C13.6143 11.5572 13.3333 12.2355 13.3333 12.9427C13.3333 13.65 13.6143 14.3282 14.1144 14.8283C14.6145 15.3284 15.2928 15.6094 16 15.6094C16.7072 15.6094 17.3855 15.3284 17.8856 14.8283C18.3857 14.3282 18.6667 13.65 18.6667 12.9427C18.6667 12.2355 18.3857 11.5572 17.8856 11.0571C17.3855 10.557 16.7072 10.276 16 10.276Z" fill="black"/>
</g>
</svg>
