<svg width="20" height="20" viewBox="0 0 20 20" fill="none" xmlns="http://www.w3.org/2000/svg">
<path id="Vector" d="M8.99977 12V9H10.9998V12H15.9998C16.265 12 16.5193 12.1054 16.7069 12.2929C16.8944 12.4804 16.9998 12.7348 16.9998 13V19C16.9998 19.2652 16.8944 19.5196 16.7069 19.7071C16.5193 19.8946 16.265 20 15.9998 20H3.99977C3.73455 20 3.4802 19.8946 3.29266 19.7071C3.10512 19.5196 2.99977 19.2652 2.99977 19V13C2.99977 12.7348 3.10512 12.4804 3.29266 12.2929C3.4802 12.1054 3.73455 12 3.99977 12H8.99977ZM0.509766 6.837C1.83477 2.864 5.58377 0 9.99977 0C14.4158 0 18.1658 2.864 19.4898 6.837L17.5918 7.469C17.0605 5.87573 16.0414 4.49 14.6788 3.50805C13.3162 2.5261 11.6793 1.99771 9.99977 1.99771C8.32024 1.99771 6.68329 2.5261 5.32073 3.50805C3.95817 4.49 2.93907 5.87573 2.40777 7.469L0.510766 6.837H0.509766ZM4.30577 8.102C4.70462 6.90741 5.46909 5.86853 6.49096 5.13239C7.51284 4.39625 8.74035 4.00015 9.99977 4.00015C11.2592 4.00015 12.4867 4.39625 13.5086 5.13239C14.5304 5.86853 15.2949 6.90741 15.6938 8.102L13.7958 8.735C13.5299 7.93861 13.0202 7.24602 12.339 6.75526C11.6577 6.2645 10.8394 6.00043 9.99977 6.00043C9.16016 6.00043 8.34181 6.2645 7.66056 6.75526C6.97931 7.24602 6.46967 7.93861 6.20377 8.735L4.30577 8.102Z" fill="black"/>
</svg>
