<svg width="24" height="25" viewBox="0 0 24 25" fill="none" xmlns="http://www.w3.org/2000/svg">
<g id="user-add-fill">
<path id="Vector" d="M14 15.1973V22.9453H4C3.99969 21.7242 4.27892 20.5192 4.8163 19.4227C5.35368 18.3262 6.13494 17.3672 7.10022 16.6193C8.0655 15.8714 9.18918 15.3544 10.3852 15.108C11.5811 14.8615 12.8177 14.892 14 15.1973ZM12 13.9453C8.685 13.9453 6 11.2603 6 7.94531C6 4.63031 8.685 1.94531 12 1.94531C15.315 1.94531 18 4.63031 18 7.94531C18 11.2603 15.315 13.9453 12 13.9453ZM18 17.9453V14.9453H20V17.9453H23V19.9453H20V22.9453H18V19.9453H15V17.9453H18Z" fill="black"/>
</g>
</svg>
